<svg id="Capa_1" enable-background="new 0 0 512 512" height="512" viewBox="0 0 512 512" width="512"
     xmlns="http://www.w3.org/2000/svg">
    <g>
        <path d="m446.146 35.5h-52.292c-4.142 0-7.5 3.358-7.5 7.5s3.358 7.5 7.5 7.5h52.292c4.142 0 7.5-3.358 7.5-7.5s-3.358-7.5-7.5-7.5zm28.354-35.5h-115c-20.678 0-37.5 16.822-37.5 37.5v40c0 20.678 16.822 37.5 37.5 37.5h4.132c.938 0 1.701.763 1.701 1.701l.003 12.411c.001 4.778 2.88 8.984 7.333 10.716 4.392 1.708 9.395.6 12.644-2.948l19.548-21.328c.321-.35.778-.551 1.254-.551h68.385c20.678 0 37.5-16.822 37.5-37.5v-40c0-20.679-16.822-37.501-37.5-37.501zm22.5 77.5c0 12.407-10.093 22.5-22.5 22.5h-68.385c-4.669 0-9.157 1.974-12.312 5.417l-13.47 14.696-.001-3.415c-.001-9.208-7.493-16.698-16.7-16.698h-4.132c-12.407 0-22.5-10.093-22.5-22.5v-40c0-12.407 10.093-22.5 22.5-22.5h115c12.407 0 22.5 10.093 22.5 22.5zm-100.708 291.621v-97.591c0-8.688-3.385-16.854-9.531-22.993l-11.169-11.157c3.976-8.36 2.534-18.675-4.377-25.585l-22.097-22.097c-8.64-8.725-23.165-8.656-31.82 0-8.669 8.669-8.748 23.154 0 31.82l22.097 22.097c4.386 4.386 10.148 6.58 15.91 6.58 3.317 0 6.626-.752 9.681-2.206l11.172 11.161c3.31 3.306 5.132 7.703 5.132 12.381v90.324c-1.049-.15-2.119-.232-3.208-.232h-17.822v-43.763c0-39.44-28.147-73.683-66.975-81.537-1.452-.294-45.069-12.652-46.243-13.027-4.295-1.37-7.589-4.749-8.948-8.909 5.179-2.275 9.947-5.507 14.067-9.626l6.703-6.702c10.38-10.379 16.191-24.1 16.461-38.735h9.526c11.304 0 20.5-9.196 20.5-20.5v-20.285c0-11.304-9.196-20.5-20.5-20.5h-9.5v-47.823c-.045-27.112-22.206-50.194-50.217-50.216h-49.686c-27.689 0-50.216 22.527-50.216 50.216v25.322c0 4.142 3.358 7.5 7.5 7.5s7.5-3.358 7.5-7.5v-25.322c0-19.418 15.798-35.216 35.217-35.216h49.686c7.327 0 14.136 2.251 19.778 6.095-.466 9.979-2.881 23.491-10.854 36.858-12.178 18.159-24.425 29.658-51.018 39.051-28.457 8.804-44.377-.541-67.308 1.035-11.304 0-20.5 9.196-20.5 20.5v20.285c0 11.304 9.196 20.5 20.5 20.5h9.526c.271 14.635 6.082 28.357 16.461 38.736l6.702 6.701c4.117 4.117 8.881 7.347 14.056 9.621-1.411 4.288-4.878 7.75-9.382 9.019l-45.813 12.912c-38.818 7.856-66.963 42.098-66.963 81.537v43.771h-17.82c-2.629 0-5.153.458-7.5 1.29v-91.381c0-4.678 1.823-9.075 5.132-12.381l11.172-11.161c3.055 1.454 6.364 2.206 9.681 2.206 5.762 0 11.523-2.193 15.91-6.58l22.097-22.097c4.25-4.25 6.59-9.9 6.59-15.91s-2.341-11.661-6.59-15.91c-8.773-8.774-23.048-8.773-31.82 0l-22.097 22.097c-6.91 6.91-8.353 17.225-4.377 25.585l-11.167 11.158c-6.146 6.139-9.531 14.305-9.531 22.993v156.546c0 12.407 10.093 22.5 22.5 22.5h10.518v53.924c0 4.142 3.358 7.5 7.5 7.5s7.5-3.358 7.5-7.5v-53.924h272.537c4.142 0 7.5-3.358 7.5-7.5s-3.358-7.5-7.5-7.5h-298.055c-4.135 0-7.5-3.365-7.5-7.5v-43.955c0-4.136 3.365-7.5 7.5-7.5h355.583c4.135 0 7.5 3.364 7.5 7.5v43.955c0 4.135-3.365 7.5-7.5 7.5h-27.528c-4.142 0-7.5 3.358-7.5 7.5s3.358 7.5 7.5 7.5h2.01v53.924c0 4.142 3.358 7.5 7.5 7.5s7.5-3.358 7.5-7.5v-53.924h10.518c12.407 0 22.5-10.093 22.5-22.5v-43.955c0-5.03-1.659-9.679-4.459-13.43.108-.507.168-1.031.168-1.57zm-35.683-136.113c-2.925 2.924-7.683 2.924-10.606 0l-22.097-22.097c-2.899-2.871-2.885-7.722 0-10.606 2.885-2.885 7.734-2.901 10.606 0l22.097 22.097c2.924 2.923 2.924 7.681 0 10.606zm-85.258-119.969h9.5c3.033 0 5.5 2.467 5.5 5.5v20.285c0 3.033-2.467 5.5-5.5 5.5h-9.5zm-150.119 31.285h-9.5c-3.033 0-5.5-2.467-5.5-5.5v-20.285c0-3.033 2.467-5.5 5.5-5.5h9.5zm-89.549 78.077 22.097-22.097c2.925-2.924 7.683-2.925 10.607 0 2.875 2.876 2.9 7.737 0 10.606l-22.097 22.097c-2.924 2.924-7.682 2.924-10.606 0-2.926-2.924-2.926-7.682-.001-10.606zm211.256-156.764c5.171-8.668 8.858-18.229 10.972-28.272 1.568 3.985 2.439 8.317 2.439 12.851v47.464c-4.151-.616-9.145-2.067-14.122-5.246-5.31-3.392-8.83-7.644-11.069-11.18 4.489-4.792 8.443-10.022 11.78-15.617zm-87.911 128.516-6.702-6.701c-7.799-7.798-12.094-18.166-12.094-29.194v-43.584c12.537 1.928 29.01 2.202 47.17-3.318 15.775-4.795 27.968-12.54 36.662-19.688 3.249 4.574 7.792 9.385 14.089 13.407 7.955 5.082 15.944 7.058 22.197 7.721v45.462c0 11.028-4.295 21.396-12.093 29.194l-6.703 6.701c-5.596 5.27-12.656 8.988-22 9.112h-38.526c-6.679.207-16.035-3.076-22-9.112zm71.394 35.851c-7.293 3.081-16.397 5.637-27.002 6.062-13.41.543-24.793-2.563-33.246-6.113 3.172-3.335 5.532-7.401 6.834-11.87 1.33.114 2.67.182 4.02.182h38.526c1.347 0 2.683-.068 4.009-.181 1.302 4.489 3.672 8.573 6.859 11.92zm114.838 131.617h-41.357v-14.882c0-4.142-3.358-7.5-7.5-7.5s-7.5 3.358-7.5 7.5v14.882h-177.223v-14.882c0-4.142-3.358-7.5-7.5-7.5s-7.5 3.358-7.5 7.5v14.882h-41.36v-43.771c-.1-32.098 23.569-60.974 55.755-67.021l42.991-12.116c9.375 5.35 25.654 12.416 46.317 12.416 1.198 0 2.413-.023 3.64-.073 18.277-.734 32.787-6.755 42.468-12.314l43.008 12.099c31.69 5.989 55.91 34.445 55.761 67.02zm100.886-296.121h-52.292c-4.142 0-7.5 3.358-7.5 7.5s3.358 7.5 7.5 7.5h52.292c4.142 0 7.5-3.358 7.5-7.5s-3.358-7.5-7.5-7.5z"/>
    </g>
</svg>