<svg id="Capa_1" enable-background="new 0 0 512.005 512.005" height="512" viewBox="0 0 512.005 512.005" width="512"
     xmlns="http://www.w3.org/2000/svg">
    <g>
        <g>
            <path d="m37.5 395.841v-259.745c0-16.569 13.431-30 30-30h377c16.569 0 30 13.431 30 30v259.745z"
                  fill="#918291"/>
            <path d="m126.128 77.469h259.745v377h-259.745z" fill="#d8ecfe" transform="matrix(0 1 -1 0 521.968 9.969)"/>
            <path d="m7.5 395.841h497v30c0 16.569-13.431 30-30 30h-437c-16.569 0-30-13.431-30-30z" fill="#7a6d79"/>
            <path d="m284.946 425.841h-57.892c-5.242 0-10.035-2.962-12.379-7.651l-11.175-22.349h105l-11.175 22.349c-2.344 4.689-7.137 7.651-12.379 7.651z"
                  fill="#918291"/>
            <g>
                <g>
                    <g>
                        <path d="m364.79 123.959-14.26 47-25.58 84.28c-2.07 6.84-9.3 10.7-16.14 8.63l-86.7-26.31c-6.84-2.08-10.7-9.3-8.62-16.14l39.83-131.29c2.08-6.84 9.31-10.7 16.15-8.63l86.7 26.31c6.84 2.08 10.7 9.31 8.62 16.15z"
                              fill="#fee45a"/>
                        <path d="m364.79 123.959-14.26 47-39.55 1.72c-2.67.12-4.99-1.82-5.35-4.48l-.96-7.06c-1.1-8.14 4.29-15.73 12.33-17.38l31.83-6.53 5.14-16.91c1.78-5.88-.82-12.04-5.93-14.98l8.13 2.47c6.84 2.08 10.7 9.31 8.62 16.15z"
                              fill="#fedf30"/>
                        <path d="m336.806 101.936 16.468-21.265c3.624-4.68 9.394-7.176 15.287-6.613l79.399 7.591 14.868 58.057-45.458 25.984c-8.043 4.597-17.068 7.206-26.323 7.61l-69.236 3.018c-2.675.117-4.997-1.826-5.356-4.479l-.955-7.065c-1.099-8.133 4.289-15.727 12.328-17.376l31.832-6.53 5.132-16.913c2.076-6.84-1.787-14.068-8.627-16.144z"
                              fill="#f6a96c"/>
                        <path d="m504.289 131.584-19.21-70.962c-.907-3.351-4.447-5.25-7.74-4.152l-27.967 9.322c-3.018 1.006-4.739 4.181-3.933 7.259l18.511 70.761c.876 3.347 4.378 5.276 7.675 4.227l28.667-9.121c3.079-.981 4.842-4.213 3.997-7.334z"
                              fill="#fe646f"/>
                    </g>
                </g>
                <path d="m372.75 265.969h-218.5c-3.866 0-7-3.134-7-7v-16c0-3.866 3.134-7 7-7h218.5c3.866 0 7 3.134 7 7v16c0 3.866-3.134 7-7 7z"
                      fill="#aa6a51"/>
                <path d="m354.75 395.841h-182.5c-5.523 0-10-4.477-10-10v-119.872h202.5v119.872c0 5.523-4.477 10-10 10z"
                      fill="#aa6a51"/>
                <path d="m162.25 265.969v10l202.5 20v-30z" fill="#935b44"/>
            </g>
        </g>
        <path d="m504.5 388.341h-22.5v-235.733l20.564-6.543c6.926-2.204 10.863-9.426 8.964-16.44l-19.211-70.962c-.969-3.581-3.399-6.64-6.668-8.394-3.271-1.754-7.163-2.087-10.684-.914l-27.967 9.322c-6.157 2.053-9.906 8.189-9.146 14.473l-68.579-6.557c-8.492-.817-16.7 2.733-21.931 9.486l-13.304 17.18-62.394-18.933c-10.783-3.274-22.225 2.84-25.499 13.626l-3.23 10.644h-175.415c-20.678 0-37.5 16.822-37.5 37.5v252.245h-22.5c-4.143 0-7.5 3.358-7.5 7.5v30c0 20.678 16.822 37.5 37.5 37.5h437c20.678 0 37.5-16.822 37.5-37.5v-30c0-4.142-3.357-7.5-7.5-7.5zm-26.257-324.268 18.441 68.121c-3.027 1.26-25.61 8.126-25.87 8.231l-17.775-67.951zm-11.243 91.431v232.838h-15v-233.808l7.047-4.028c1.948 2.555 4.794 4.345 7.953 4.998zm-107.798-70.24c2.063-2.662 5.301-4.058 8.645-3.739l73.903 7.066 12.394 47.441-40.495 23.147c-6.975 3.986-14.902 6.278-22.927 6.628l-67.117 2.925-.671-4.962c-.568-4.208 2.244-8.172 6.402-9.025l31.771-6.517 16.354-3.079c4.07-.767 6.749-4.688 5.982-8.758-.766-4.071-4.694-6.75-8.758-5.983l-4.257.801c.905-3.465 2.43-7.49 2.431-11.029.001-3.319-.814-6.608-2.422-9.618-2.574-4.816-6.869-8.342-12.095-9.927l-8.942-2.714zm-186.952 303.077c-1.379 0-2.5-1.122-2.5-2.5v-112.372h187.5v97.373c0 4.142 3.357 7.5 7.5 7.5s7.5-3.358 7.5-7.5v-97.373h.5c7.995 0 14.5-6.505 14.5-14.5v-16c0-7.995-6.505-14.5-14.5-14.5h-31.833l13.985-46.087 36.472-1.59c10.402-.453 20.678-3.424 29.718-8.591l15.908-9.093v225.233zm124.115 15-5.748 11.495c-1.081 2.162-3.254 3.505-5.671 3.505h-57.893c-2.417 0-4.59-1.343-5.671-3.505l-5.748-11.495zm-141.615-144.872v-15h217.5v15zm100.879-150.11c.008-.025.016-.051.023-.076l4.848-15.975c.872-2.872 3.919-4.499 6.79-3.629l67.332 20.432c.002.001.004.002.006.002l19.36 5.875c1.392.422 2.535 1.361 3.221 2.643.685 1.282.829 2.755.407 4.146l-3.836 12.641-27.458 5.632c-11.856 2.432-19.874 13.732-18.254 25.728l.955 7.064c.858 6.351 6.198 10.98 12.543 10.98.189 0 .381-.004.571-.013l16.879-.736-13.775 45.394h-103.697c-1.03-1.365-1.396-3.181-.882-4.875zm-210.629 27.737c0-12.407 10.094-22.5 22.5-22.5h170.865l-32.057 105.642c-.925 3.049-1.079 6.204-.576 9.23h-51.482c-7.995 0-14.5 6.505-14.5 14.5v16c0 7.995 6.505 14.5 14.5 14.5h.5v112.373c0 .851.082 1.681.2 2.5h-79.95v-244.745h134.375c4.143 0 7.5-3.358 7.5-7.5s-3.357-7.5-7.5-7.5h-141.875c-4.143 0-7.5 3.358-7.5 7.5v252.245h-15zm452 289.745c0 12.407-10.094 22.5-22.5 22.5h-437c-12.406 0-22.5-10.093-22.5-22.5v-22.5h183.865l9.102 18.204c3.639 7.276 10.952 11.796 19.087 11.796h57.893c8.135 0 15.448-4.52 19.087-11.797l9.102-18.203h183.864zm-263.5-102.436c-4.142 0-7.5 3.358-7.5 7.5s3.358 7.5 7.5 7.5 7.5-3.358 7.5-7.5-3.358-7.5-7.5-7.5zm30 0c-4.142 0-7.5 3.358-7.5 7.5s3.358 7.5 7.5 7.5 7.5-3.358 7.5-7.5-3.358-7.5-7.5-7.5zm30 0c-4.142 0-7.5 3.358-7.5 7.5s3.358 7.5 7.5 7.5 7.5-3.358 7.5-7.5-3.358-7.5-7.5-7.5z"/>
    </g>
</svg>